<?xml version="1.0" encoding="UTF-8"?>
<svg version="1.1" xmlns="http://www.w3.org/2000/svg" width="40" height="40">
<path d="M0 0 C13.2 0 26.4 0 40 0 C40 13.2 40 26.4 40 40 C26.8 40 13.6 40 0 40 C0 26.8 0 13.6 0 0 Z " fill="#1A1B28" transform="translate(0,0)"/>
<path d="M0 0 C1.485 0.66708984 1.485 0.66708984 3 1.34765625 C4.33291469 1.92024636 5.66627227 2.49180626 7 3.0625 C7.64839844 3.35705078 8.29679688 3.65160156 8.96484375 3.95507812 C15.09763822 6.53570946 19.53276017 6.16353466 25.8984375 4.02734375 C27.12433594 3.48787109 27.12433594 3.48787109 28.375 2.9375 C32.82918149 1 32.82918149 1 35 1 C34.67 2.32 34.34 3.64 34 5 C34.99 5.33 35.98 5.66 37 6 C31.18982061 16.45282864 25.2111489 26.78023727 19 37 C15.00523279 35.66841093 14.56127461 34.01238705 12.49609375 30.390625 C12.17214127 29.82680115 11.84818878 29.26297729 11.51441956 28.68206787 C10.8302929 27.48742124 10.150542 26.29025973 9.47485352 25.09082031 C8.4464686 23.26591509 7.40524111 21.44887091 6.36132812 19.6328125 C0.86847217 10.00956288 0.86847217 10.00956288 -1 5 C-0.34 4.67 0.32 4.34 1 4 C0.67 2.68 0.34 1.36 0 0 Z " fill="#8377A1" transform="translate(2,1)"/>
<path d="M0 0 C0.6290625 0.30035156 1.258125 0.60070313 1.90625 0.91015625 C10.57289576 4.76054857 16.12761169 3.77262135 25 1 C24.00856307 5.78580867 21.53584902 9.52824969 19.0625 13.6875 C18.60681641 14.47189453 18.15113281 15.25628906 17.68164062 16.06445312 C17.24142578 16.81017578 16.80121094 17.55589844 16.34765625 18.32421875 C15.94554932 19.00572998 15.54344238 19.68724121 15.12915039 20.3894043 C14 22 14 22 12 23 C9.99304709 19.54565686 7.99563221 16.0858937 6 12.625 C5.42765625 11.64015625 4.8553125 10.6553125 4.265625 9.640625 C3.72421875 8.69960938 3.1828125 7.75859375 2.625 6.7890625 C2.12226563 5.91975098 1.61953125 5.05043945 1.1015625 4.15478516 C0 2 0 2 0 0 Z " fill="#CCC0DC" transform="translate(7,9)"/>
<path d="M0 0 C1.485 0.66708984 1.485 0.66708984 3 1.34765625 C4.33291469 1.92024636 5.66627227 2.49180626 7 3.0625 C7.64839844 3.35705078 8.29679688 3.65160156 8.96484375 3.95507812 C15.09763822 6.53570946 19.53276017 6.16353466 25.8984375 4.02734375 C27.12433594 3.48787109 27.12433594 3.48787109 28.375 2.9375 C32.82918149 1 32.82918149 1 35 1 C34.06500696 4.32566385 33.4451891 5.71246757 30.49609375 7.6171875 C22.51761223 10.89824886 17.39740822 12.04057858 9.29296875 8.9765625 C2.42978209 5.89352872 2.42978209 5.89352872 0.71484375 2.328125 C0.47894531 1.55984375 0.24304688 0.7915625 0 0 Z " fill="#C4B9D5" transform="translate(2,1)"/>
<path d="M0 0 C4.53351612 4.06144442 7.25228053 8.51489512 10.1875 13.8125 C11.04915378 15.36449201 11.91729587 16.91290579 12.79296875 18.45703125 C13.1696167 19.13741455 13.54626465 19.81779785 13.93432617 20.51879883 C14.28599854 21.00759521 14.6376709 21.4963916 15 22 C15.66 22 16.32 22 17 22 C17.59167969 20.90300781 18.18335937 19.80601563 18.79296875 18.67578125 C19.59069379 17.22110618 20.38889626 15.76669286 21.1875 14.3125 C21.57486328 13.59126953 21.96222656 12.87003906 22.36132812 12.12695312 C24.79502798 7.72215752 27.25628554 4.37133789 31 1 C29.21697508 6.00462676 26.59335004 10.50883694 24 15.125 C23.54882812 15.93582031 23.09765625 16.74664063 22.6328125 17.58203125 C20.83631985 20.79764679 19.04465346 23.93301981 17 27 C13.09705679 25.69901893 12.6791008 24.24244721 10.64453125 20.72265625 C10.02255859 19.65208984 9.40058594 18.58152344 8.75976562 17.47851562 C8.11716797 16.35123047 7.47457031 15.22394531 6.8125 14.0625 C6.15830078 12.93908203 5.50410156 11.81566406 4.83007812 10.65820312 C0 2.28237422 0 2.28237422 0 0 Z " fill="#2D2C3C" transform="translate(4,8)"/>
<path d="M0 0 C0.66 0 1.32 0 2 0 C2.08096803 1.45742463 2.13917774 2.91612807 2.1875 4.375 C2.22230469 5.18710938 2.25710937 5.99921875 2.29296875 6.8359375 C2.19628906 7.55007812 2.09960938 8.26421875 2 9 C1.01 9.66 0.02 10.32 -1 11 C-0.67 9.68 -0.34 8.36 0 7 C-0.66 6.67 -1.32 6.34 -2 6 C-1.34 4.02 -0.68 2.04 0 0 Z " fill="#272636" transform="translate(38,0)"/>
<path d="M0 0 C3.68006822 3.38168431 5.9785845 6.42521756 8 11 C7.01 11.495 7.01 11.495 6 12 C4.99466333 10.37829621 3.99588093 8.75252763 3 7.125 C2.443125 6.22007813 1.88625 5.31515625 1.3125 4.3828125 C0 2 0 2 0 0 Z " fill="#313041" transform="translate(4,8)"/>
<path d="M0 0 C2.97 0.495 2.97 0.495 6 1 C5.67 1.99 5.34 2.98 5 4 C4.67 3.67 4.34 3.34 4 3 C3.34 3.66 2.68 4.32 2 5 C1.34 3.35 0.68 1.7 0 0 Z " fill="#81769F" transform="translate(1,6)"/>
</svg>
